<svg xmlns="http://www.w3.org/2000/svg" width="194" height="53" viewBox="0 0 194 53" fill="none"><g id="logo_creze 1" clip-path="url(#clip0_722_14)"><path id="Vector" d="M44.6726 52.2032C46.3087 50.8573 46.5425 49.1525 46.6009 47.4776V1.6866C46.6009 0.280868 45.5783 -0.377134 44.322 0.22105L2.30813 19.991C1.02259 20.5892 0 21.965 0 23.61C0 25.943 1.49006 27.4384 2.48343 28.1562L14.6669 36.0523C15.8355 36.8 17.384 36.471 18.1145 35.2746L20.8024 31.0275C21.5328 29.8611 21.2114 28.2759 20.0428 27.5281L17.9099 26.1523C16.7413 25.4046 16.8289 24.3279 18.056 23.7297L34.359 16.0729C35.6153 15.4747 36.6379 16.1327 36.6379 17.5385V35.7831C36.6379 37.1888 35.7614 37.6973 34.5928 36.9495L32.2554 35.4242C31.0867 34.6764 29.5382 35.0054 28.8078 36.2018L26.1199 40.4489C25.3894 41.6154 25.7108 43.2006 26.8795 43.9483L40.0563 52.4724C40.8159 52.8313 42.978 53.5791 44.6726 52.2032Z" fill="#78BE20"></path><path id="Vector_2" d="M68.8659 34.8879C71.8168 34.8879 73.5698 33.6916 74.1834 31.897L74.7677 31.2988H81.8382L82.4225 31.897C81.2538 39.0752 75.352 42.096 68.8659 42.096C60.0132 42.096 54.1406 36.1142 54.1406 26.5134C54.1406 16.9424 60.0424 10.9307 68.8659 10.9307C75.352 10.9307 81.2538 13.9216 82.4225 21.1297L81.8382 21.7279H74.7677L74.1834 21.1297C73.599 19.3351 71.8168 18.1388 68.8659 18.1388C64.7463 18.1388 62.3798 21.1297 62.3798 26.5134C62.3798 31.897 64.7463 34.8879 68.8659 34.8879Z" fill="white"></path><path id="Vector_3" d="M103.693 18.7065H99.5729C94.869 18.7065 93.0868 21.0993 93.0868 26.4829V40.8692L92.5025 41.4674H85.432L84.8477 40.8692V12.1265L85.432 11.5283H91.9181L92.5025 12.1265L93.0868 13.9211H93.6711C93.6711 13.9211 94.8398 11.5283 100.157 11.5283H103.693L104.277 12.1265V18.1083L103.693 18.7065Z" fill="white"></path><path id="Vector_4" d="M133.698 28.9057L133.114 29.5039H114.824L114.239 30.1021C114.239 31.2985 115.408 34.8876 120.141 34.8876C121.924 34.8876 123.677 34.2894 124.261 33.093L124.845 32.4948H131.916L132.5 33.093C131.916 36.6821 128.965 42.0658 120.112 42.0658C110.091 42.0658 105.387 34.8876 105.387 26.4831C105.387 18.1085 110.091 10.9004 119.528 10.9004C128.965 10.9004 133.669 18.0786 133.669 26.4831V28.9057H133.698ZM124.845 22.9239C124.845 22.3257 124.261 18.1384 119.528 18.1384C114.824 18.1384 114.21 22.3257 114.21 22.9239L114.795 23.5221H124.232L124.845 22.9239Z" fill="white"></path><path id="Vector_5" d="M161.894 41.4977H137.147L136.562 40.8995V34.3195L137.147 33.1231L150.704 19.335V18.7368H137.731L137.147 18.1386V12.1568L137.731 11.5586H161.309L161.894 12.1568V18.7368L161.309 19.9332L147.753 33.7213V34.3195H161.894L162.478 34.9177V40.8995L161.894 41.4977Z" fill="white"></path><path id="Vector_6" d="M194.001 28.9057L193.416 29.5039H175.156L174.571 30.1021C174.571 31.2985 175.74 34.8876 180.473 34.8876C182.255 34.8876 184.008 34.2894 184.593 33.093L185.177 32.4948H192.248L192.832 33.093C192.248 36.6821 189.297 42.0658 180.444 42.0658C170.423 42.0658 165.719 34.8876 165.719 26.4831C165.719 18.1085 170.423 10.9004 179.86 10.9004C189.297 10.9004 194.001 18.0786 194.001 26.4831V28.9057ZM185.148 22.9239C185.148 22.3257 184.564 18.1384 179.83 18.1384C175.127 18.1384 174.513 22.3257 174.513 22.9239L175.097 23.5221H184.534L185.148 22.9239Z" fill="white"></path></g><defs><clipPath id="clip0_722_14"><rect width="194" height="53" fill="white"></rect></clipPath></defs></svg>